<?xml version="1.0" encoding="UTF-8"?>
<svg width="186px" height="148px" viewBox="0 0 186 148" version="1.1" xmlns="http://www.w3.org/2000/svg" xmlns:xlink="http://www.w3.org/1999/xlink">
    <title>Group 2</title>
    <g id="Page-1" stroke="none" stroke-width="1" fill="none" fill-rule="evenodd">
        <g id="Desktop-HD" transform="translate(-282.000000, -350.000000)">
            <g id="Group-2" transform="translate(282.000000, 350.000000)">
                <path d="M93,0 C133.869071,0 167,33.1309285 167,74 C167,114.869071 133.869071,148 93,148 C52.1309285,148 19,114.869071 19,74 C19,33.1309285 52.1309285,0 93,0 Z M93,27.0319635 C67.0602697,27.0319635 46.0319635,48.0602697 46.0319635,74 C46.0319635,99.9397303 67.0602697,120.968037 93,120.968037 C118.93973,120.968037 139.968037,99.9397303 139.968037,74 C139.968037,48.0602697 118.93973,27.0319635 93,27.0319635 Z" id="Oval" fill="#E32119" fill-rule="nonzero"></path>
                <g id="Group" transform="translate(0.000000, 58.000000)">
                    <rect id="Rectangle" fill="#003889" x="0" y="0" width="186" height="31"></rect>
                    <path d="M19.6632436,23.8888696 C21.7410327,23.8888696 23.3065891,23.2922319 24.3599127,22.0989565 C25.4132364,20.9056812 25.9398982,19.2523478 25.9398982,17.1389565 L25.9398982,17.1389565 L25.9398982,8.49130435 L23.4292364,8.49130435 L23.4292364,16.492 C23.4292364,18.1022029 23.1659055,19.3422029 22.6392436,20.212 C22.1125818,21.0817971 21.1205818,21.5166957 19.6632436,21.5166957 C18.2059055,21.5166957 17.2139055,21.0817971 16.6872436,20.212 C16.1605818,19.3422029 15.8972509,18.1022029 15.8972509,16.492 L15.8972509,16.492 L15.8972509,8.49130435 L13.3865891,8.49130435 L13.3865891,17.1389565 C13.3865891,19.2523478 13.9132509,20.9056812 14.9665745,22.0989565 C16.0198982,23.2922319 17.5854545,23.8888696 19.6632436,23.8888696 Z M31.6538182,23.5869565 L31.6538182,12.6533913 L38.9693673,23.5869565 L41.0471564,23.5869565 L41.0471564,8.49130435 L38.5148509,8.49130435 L38.5148509,18.7994783 L31.6971055,8.49130435 L29.1431564,8.49130435 L29.1431564,23.5869565 L31.6538182,23.5869565 Z M50.0725527,23.5869565 C51.5298909,23.5869565 52.8249018,23.2850435 53.9575855,22.6812174 C55.0902691,22.0773913 55.9740509,21.2075942 56.6089309,20.0718261 C57.2438109,18.936058 57.5612509,17.5918261 57.5612509,16.0391304 C57.5612509,14.4864348 57.2438109,13.1422029 56.6089309,12.0064348 C55.9740509,10.8706667 55.0902691,10.0008696 53.9575855,9.39704348 C52.8249018,8.79321739 51.5298909,8.49130435 50.0725527,8.49130435 L50.0725527,8.49130435 L44.4235636,8.49130435 L44.4235636,23.5869565 L50.0725527,23.5869565 Z M50.0725527,21.3441739 L46.9342255,21.3441739 L46.9342255,10.734087 L50.0725527,10.734087 C51.6164655,10.734087 52.7924364,11.2049275 53.6004655,12.1466087 C54.4084945,13.0882899 54.8125091,14.3857971 54.8125091,16.0391304 C54.8125091,17.6924638 54.4084945,18.989971 53.6004655,19.9316522 C52.7924364,20.8733333 51.6164655,21.3441739 50.0725527,21.3441739 L50.0725527,21.3441739 Z M69.8115491,23.5869565 L69.8115491,21.2147826 L62.6258618,21.2147826 L62.6258618,16.9017391 L68.1017018,16.9017391 L68.1017018,14.5295652 L62.6258618,14.5295652 L62.6258618,10.8634783 L69.5951127,10.8634783 L69.5951127,8.49130435 L60.0719127,8.49130435 L60.0719127,23.5869565 L69.8115491,23.5869565 Z M74.8112291,23.5869565 L74.8112291,17.8721739 L77.7547636,17.8721739 L80.7199418,23.5869565 L83.5985455,23.5869565 L80.2004945,17.2683478 C81.0373818,16.8657971 81.6794764,16.3266667 82.1267782,15.6509565 C82.57408,14.9752464 82.7977309,14.1126377 82.7977309,13.0631304 C82.7977309,11.5391884 82.336,10.3962319 81.4125382,9.63426087 C80.4890764,8.87228986 79.2121018,8.49130435 77.5816145,8.49130435 L77.5816145,8.49130435 L72.25728,8.49130435 L72.25728,23.5869565 L74.8112291,23.5869565 Z M77.1054545,15.7372174 L74.8112291,15.7372174 L74.8112291,10.6262609 L77.1703855,10.6262609 C79.1760291,10.6262609 80.1788509,11.4744928 80.1788509,13.1709565 C80.1788509,13.976058 79.9299491,14.6050435 79.4321455,15.057913 C78.9343418,15.5107826 78.1587782,15.7372174 77.1054545,15.7372174 L77.1054545,15.7372174 Z M92.2992873,23.8888696 C93.3093236,23.8888696 94.2508218,23.7810435 95.1237818,23.5653913 C95.9967418,23.3497391 96.7290182,23.0765797 97.3206109,22.745913 L97.3206109,22.745913 L97.3206109,16.0175652 L92.6239418,16.0175652 L92.6239418,18.1525217 L94.8099491,18.1525217 L94.8099491,21.2363478 C94.0740655,21.4232464 93.3309673,21.5166957 92.5806545,21.5166957 C90.9213091,21.5166957 89.6551564,21.0135072 88.7821964,20.0071304 C87.9092364,19.0007536 87.4727564,17.6637101 87.4727564,15.996 C87.4727564,14.3714203 87.9092364,13.0595362 88.7821964,12.0603478 C89.6551564,11.0611594 90.9429527,10.5615652 92.6455855,10.5615652 C93.9586327,10.5615652 95.2644655,10.8347246 96.5630836,11.3810435 L96.5630836,11.3810435 L96.8228073,9.07356522 C96.2745018,8.8004058 95.6324073,8.58475362 94.8965236,8.4266087 C94.16064,8.26846377 93.4031127,8.1893913 92.6239418,8.1893913 C91.0944582,8.1893913 89.7309091,8.51286957 88.5332945,9.15982609 C87.33568,9.80678261 86.4013964,10.7233043 85.7304436,11.9093913 C85.0594909,13.0954783 84.7240145,14.4648696 84.7240145,16.0175652 C84.7240145,17.5990145 85.03424,18.9827826 85.6546909,20.1688696 C86.2751418,21.3549565 87.1589236,22.2714783 88.3060364,22.9184348 C89.4531491,23.5653913 90.7842327,23.8888696 92.2992873,23.8888696 Z M102.623302,23.5869565 L102.623302,17.8721739 L105.566836,17.8721739 L108.532015,23.5869565 L111.410618,23.5869565 L108.012567,17.2683478 C108.849455,16.8657971 109.491549,16.3266667 109.938851,15.6509565 C110.386153,14.9752464 110.609804,14.1126377 110.609804,13.0631304 C110.609804,11.5391884 110.148073,10.3962319 109.224611,9.63426087 C108.301149,8.87228986 107.024175,8.49130435 105.393687,8.49130435 L105.393687,8.49130435 L100.069353,8.49130435 L100.069353,23.5869565 L102.623302,23.5869565 Z M104.917527,15.7372174 L102.623302,15.7372174 L102.623302,10.6262609 L104.982458,10.6262609 C106.988102,10.6262609 107.990924,11.4744928 107.990924,13.1709565 C107.990924,13.976058 107.742022,14.6050435 107.244218,15.057913 C106.746415,15.5107826 105.970851,15.7372174 104.917527,15.7372174 L104.917527,15.7372174 Z M120.024785,23.8888696 C121.467695,23.8888696 122.751884,23.5653913 123.877353,22.9184348 C125.002822,22.2714783 125.886604,21.3549565 126.528698,20.1688696 C127.170793,18.9827826 127.49184,17.6062029 127.49184,16.0391304 C127.49184,14.472058 127.170793,13.0954783 126.528698,11.9093913 C125.886604,10.7233043 125.002822,9.80678261 123.877353,9.15982609 C122.751884,8.51286957 121.467695,8.1893913 120.024785,8.1893913 C118.581876,8.1893913 117.297687,8.51286957 116.172218,9.15982609 C115.046749,9.80678261 114.162967,10.7233043 113.520873,11.9093913 C112.878778,13.0954783 112.557731,14.472058 112.557731,16.0391304 C112.557731,17.6062029 112.878778,18.9827826 113.520873,20.1688696 C114.162967,21.3549565 115.046749,22.2714783 116.172218,22.9184348 C117.297687,23.5653913 118.581876,23.8888696 120.024785,23.8888696 Z M120.024785,21.4735652 C118.480873,21.4735652 117.290473,20.9703768 116.453585,19.964 C115.616698,18.9576232 115.198255,17.6493333 115.198255,16.0391304 C115.198255,14.4289275 115.616698,13.1206377 116.453585,12.1142609 C117.290473,11.1078841 118.480873,10.6046957 120.024785,10.6046957 C121.568698,10.6046957 122.755491,11.1078841 123.585164,12.1142609 C124.414836,13.1206377 124.829673,14.4289275 124.829673,16.0391304 C124.829673,17.6493333 124.414836,18.9576232 123.585164,19.964 C122.755491,20.9703768 121.568698,21.4735652 120.024785,21.4735652 Z M136.084364,23.8888696 C138.162153,23.8888696 139.727709,23.2922319 140.781033,22.0989565 C141.834356,20.9056812 142.361018,19.2523478 142.361018,17.1389565 L142.361018,17.1389565 L142.361018,8.49130435 L139.850356,8.49130435 L139.850356,16.492 C139.850356,18.1022029 139.587025,19.3422029 139.060364,20.212 C138.533702,21.0817971 137.541702,21.5166957 136.084364,21.5166957 C134.627025,21.5166957 133.635025,21.0817971 133.108364,20.212 C132.581702,19.3422029 132.318371,18.1022029 132.318371,16.492 L132.318371,16.492 L132.318371,8.49130435 L129.807709,8.49130435 L129.807709,17.1389565 C129.807709,19.2523478 130.334371,20.9056812 131.387695,22.0989565 C132.441018,23.2922319 134.006575,23.8888696 136.084364,23.8888696 Z M148.074938,23.5869565 L148.074938,12.6533913 L155.390487,23.5869565 L157.468276,23.5869565 L157.468276,8.49130435 L154.935971,8.49130435 L154.935971,18.7994783 L148.118225,8.49130435 L145.564276,8.49130435 L145.564276,23.5869565 L148.074938,23.5869565 Z M166.493673,23.5869565 C167.951011,23.5869565 169.246022,23.2850435 170.378705,22.6812174 C171.511389,22.0773913 172.395171,21.2075942 173.030051,20.0718261 C173.664931,18.936058 173.982371,17.5918261 173.982371,16.0391304 C173.982371,14.4864348 173.664931,13.1422029 173.030051,12.0064348 C172.395171,10.8706667 171.511389,10.0008696 170.378705,9.39704348 C169.246022,8.79321739 167.951011,8.49130435 166.493673,8.49130435 L166.493673,8.49130435 L160.844684,8.49130435 L160.844684,23.5869565 L166.493673,23.5869565 Z M166.493673,21.3441739 L163.355345,21.3441739 L163.355345,10.734087 L166.493673,10.734087 C168.037585,10.734087 169.213556,11.2049275 170.021585,12.1466087 C170.829615,13.0882899 171.233629,14.3857971 171.233629,16.0391304 C171.233629,17.6924638 170.829615,18.989971 170.021585,19.9316522 C169.213556,20.8733333 168.037585,21.3441739 166.493673,21.3441739 L166.493673,21.3441739 Z" id="UNDERGROUND" stroke="#FFFFFF" fill="#FFFFFF" fill-rule="nonzero"></path>
                </g>
                <text id="Zodiac" stroke="#000000" font-family="Cabin-SemiBold, Cabin SemiBold" font-size="12" font-weight="500" fill="#000000">
                    <tspan x="72" y="106">ZODIAC</tspan>
                </text>
            </g>
        </g>
    </g>
</svg>